<?xml version="1.0" encoding="UTF-8"?>
<svg width="370px" height="299px" viewBox="0 0 370 299" version="1.1" xmlns="http://www.w3.org/2000/svg" xmlns:xlink="http://www.w3.org/1999/xlink">
    <!-- Generator: Sketch 47.1 (45422) - http://www.bohemiancoding.com/sketch -->
    <title>Tieup</title>
    <desc>Created with Sketch.</desc>
    <defs>
        <path d="M25.357642,0.0160322964 C25.4727996,0.00501009261 25.5909613,0 25.7111258,0 C28.5970761,0 32.6696505,2.94994253 35.1280155,4.13432842 C36.4918823,4.79065056 37.8447341,5.52913821 39.2706859,6.04617977 C43.2050712,7.47505818 47.651157,7.33878366 51.7087109,6.58726977 C54.932123,5.99106875 59.5454377,3.42590133 62.6486853,5.14536511 C65.6007261,6.78065934 64.6564335,8.80874483 62.844954,10.6875296 C59.9169462,13.7236457 58.9936824,18.5593871 58.0614064,22.5634531 C56.3660858,29.8541399 55.3987618,37.3772949 55.1924794,44.8603693 C57.050022,41.2270501 61.4230077,35.6788735 60.8992908,31.321095 C60.8121716,30.5916255 58.1815708,24.235822 61.710401,26.0013786 C63.0342131,26.0013786 66.6531666,31.1427357 68.0340568,32.1277199 C69.2697481,33.0084942 70.5835465,33.6417699 72.0205134,34.136767 C73.3543391,34.5966935 75.5984107,34.5275543 76.7489856,35.2359814 C81.3743167,38.0867241 72.8917058,38.4855274 71.4146841,39.4845399 C67.7837141,41.9404873 64.7305349,48.0257458 63.2294803,52.0167856 C61.2377541,57.3124534 62.6907429,63.0500115 68.6859491,64.6853057 C74.8313608,66.3596787 81.4013537,61.6481876 83.090666,55.7603268 C85.1424745,48.6119266 76.7760226,45.1910354 74.6060524,52.8013661 C74.245559,54.0639094 74.4788783,55.6921895 72.4531055,55.2633256 C69.8295143,54.7092093 70.2741229,48.8343747 70.6736698,47.0938686 C72.1737231,40.5416694 78.9209586,36.1728687 85.3757938,38.9053732 C86.0847643,35.1548179 87.1482199,30.8932331 89.4143217,27.7358727 C89.8909741,27.0725364 90.9374065,25.317 91.9638114,25.8510759 C93.2645919,26.5274384 91.9457867,28.7699558 91.7104646,29.9092509 C90.4086828,36.190905 91.6333591,44.1178735 96.9997045,48.2932847 C102.412113,52.5057706 109.02917,49.5187534 110.032544,42.8663524 C110.544244,39.4755217 109.628991,35.3031166 106.824152,33.0746274 C104.914538,31.5575714 100.2842,31.3391313 101.529905,35.0766604 C102.280933,35.8281743 100.89804,36.3782825 100.396354,36.4945166 C99.5061352,36.7009324 98.0962053,35.8161501 97.3561924,35.3431973 C95.4646032,34.133761 94.1457981,32.2108874 93.8143444,29.9793922 C93.2605864,26.2498792 95.3214072,22.558443 99.0324869,21.5734588 C107.979734,19.2006789 114.278355,29.2970176 115.558107,36.6368032 C115.558107,31.0024531 116.325157,24.1696888 112.991594,19.2297375 C111.778934,17.4321162 107.767443,15.1044272 107.906634,12.9571015 C108.12293,9.59532937 112.585037,12.3448682 114.07708,12.7947745 C119.564591,14.4481051 122.59574,12.1935634 126.903636,9.02117276 C128.218436,8.05322287 129.92377,6.37584386 131.571025,6.00810306 C134.832489,5.28163963 134.104493,8.16745298 132.521326,10.0201852 C130.133057,12.8138129 127.373279,14.6565249 126.314831,18.3700056 C124.939949,23.1887127 125.031073,29.2739711 125.520744,34.2109164 C126.344872,42.5396944 130.978214,37.2430245 133.902216,33.1217223 C136.239415,29.8270854 138.372335,26.3891598 140.632428,23.0424179 C142.068394,20.9181387 144.166265,18.6706111 142.755334,16.0763852 C141.807036,14.334877 139.068287,12.5422658 141.652825,10.5071662 C143.769722,8.83980741 147.234465,11.3849345 149.383406,11.8869457 C151.845777,12.4631064 154.304142,12.3919631 156.756499,11.8258226 C159.076674,11.2907447 161.307728,10.3989482 163.462678,9.40394384 C165.146983,8.62637746 168.438489,5.88786084 170.254975,6.00810306 C173.234053,6.20650273 171.677923,10.1584638 170.468267,11.4761181 C168.764936,13.3298524 166.137339,14.5382867 164.122581,16.064361 C161.198579,18.2778199 159.133753,20.8229469 157.345305,24.02139 C154.469368,29.1607431 153.049424,34.8161356 152.746009,40.573734 C152.443595,46.3323345 153.256708,52.1931408 154.849889,57.7443234 C156.257816,62.6512081 158.265564,67.6993775 161.405863,71.7785949 C162.245011,72.868791 163.734049,74.980044 165.152992,75.3467828 C166.171386,75.6093117 166.834293,75.3497889 167.438119,75.0912681 C168.272261,74.7335475 168.994249,74.3758269 170.387156,75.3888676 C174.228414,78.1844993 177.246545,83.0893799 179.828079,86.9812199 C183.424001,92.4021401 186.531254,98.1477143 189.38516,103.989482 C191.469012,108.345257 193.497789,112.813257 194.838625,117.463625 C195.474495,119.676082 196.588019,123.117014 195.620695,125.399612 C193.058188,131.442786 181.703646,118.847413 179.749972,116.892475 C178.042635,120.308356 178.009589,124.577957 177.274583,128.306468 C175.983817,134.864679 174.078208,141.333711 171.501682,147.502137 C169.236581,152.923057 166.671069,158.217723 164.086532,163.490344 C162.380196,166.970355 161.401857,170.505476 164.368918,173.704921 C167.134704,176.688932 173.303147,178.512606 176.42442,175.05464 C178.436173,172.825149 178.083691,169.299046 176.471484,166.965344 C175.658371,165.790979 172.760404,164.57553 172.389897,163.401165 C171.472642,160.496313 175.666382,161.335002 177.340674,161.841022 C179.8441,162.598548 182.054126,164.003378 183.829556,165.923245 C187.988248,170.416296 189.326079,177.261085 186.094656,182.652946 C178.57236,195.203228 164.316847,184.90849 157.927101,177.298159 L157.784906,177.298159 L157.784906,177.154871 C155.20137,174.416354 152.499672,172.149788 148.572296,172.275041 C146.035824,172.355202 139.898424,175.611762 140.923827,170.490446 C142.960615,166.41223 147.562915,165.097582 149.910127,161.000328 C153.516063,154.703644 155.887309,147.253636 157.784906,140.288605 C153.960672,139.65032 149.129058,139.869762 145.741421,141.990033 C143.514373,149.417996 139.400742,156.870008 134.950651,163.149658 C132.500297,166.607624 128.635006,170.798065 124.29807,173.588687 C118.502137,177.3182 111.863049,178.549681 106.629886,172.192875 C101.132361,177.872316 93.9084732,179.327247 86.8177676,178.121819 C79.7250592,176.917392 72.7685372,173.048599 67.8037415,168.080591 C65.0219338,168.080591 62.3773139,167.233885 59.6485789,168.322078 C56.941874,169.401251 55.118378,171.920326 53.6343467,174.32016 L53.6343467,174.461445 L53.4911507,173.609729 L53.6343467,174.461445 C49.110154,182.524688 40.0217139,193.409615 29.6785564,187.128963 C18.981915,180.635883 24.1109355,164.609599 34.7875495,161.55745 C35.4094007,161.55745 37.385105,161.513362 37.0536513,162.83302 C37.0536513,162.976309 36.912458,163.258878 36.6290701,163.401165 C34.1626942,165.754906 31.9857144,168.852145 32.9310083,172.447388 C33.9604173,176.361272 37.9719082,177.252067 41.4156219,175.965475 C44.5178682,174.807141 47.4528856,172.04658 47.732268,168.587612 C47.9615819,165.723843 46.2892929,163.636639 44.7061259,161.477289 C39.2696846,154.057342 33.7821733,146.564247 29.553385,138.370742 C26.7295198,132.896715 25.0071623,127.191221 22.6008686,121.571901 C21.7156569,121.193138 20.592119,121.333421 19.4785948,121.474706 C17.8964292,121.673105 16.334291,121.873509 15.5151698,120.578901 C14.2394235,118.56284 15.8916851,114.602862 16.6216843,112.662955 C19.3794591,105.331185 24.6156263,99.2278903 31.0203931,94.8089886 C37.0266143,90.66464 44.0352075,88.4742275 51.2841297,88.0463656 C53.5011644,87.9161032 55.761258,87.9381476 57.9492528,87.5313281 C61.7033914,86.8359272 62.3582879,84.9070415 64.8276679,82.4360639 C68.8812163,80.8137959 72.8756839,89.854007 73.389387,92.6306003 C74.1233917,96.5955876 73.1690855,100.761981 70.911996,104.086678 C68.4255927,107.747052 64.1827852,110.686974 59.6726117,110.870343 C57.7209403,110.949503 55.645099,110.600801 54.0218771,109.436455 C52.8703009,108.611794 50.53911,106.016566 52.4997937,104.839194 C54.1790923,103.159811 56.8667712,104.622758 56.9078274,100.822102 C56.941874,97.7970078 54.1660745,95.7759365 51.4723874,95.3039857 C46.3233395,94.401167 41.1742916,97.2619299 39.3758298,102.103683 C36.1233779,110.853309 40.0387372,122.993766 42.8646052,131.071037 C46.4925711,128.081014 44.8763589,123.9046 44.2825461,119.974684 C43.9470869,117.760223 44.6650697,114.66599 47.589072,116.349381 C48.7316359,117.006705 49.3324583,119.038798 49.9493026,120.153043 C51.0357898,122.115997 52.2684771,123.990774 53.6483659,125.760339 C56.1547966,128.976818 59.4082499,132.756432 63.1283419,134.616178 C69.6472649,129.819516 78.4403006,132.152215 82.8403233,138.596196 C84.8110208,141.483011 85.9075217,145.048193 85.7022407,148.552252 C85.6101146,150.142455 85.3757938,152.575356 83.9027776,153.51525 C82.8533411,154.184598 80.8405861,154.122473 80.8405861,152.482169 C80.0485019,149.739644 79.0661573,146.711544 76.1081084,145.668443 C72.932762,144.547184 70.0287871,146.777677 69.1115316,149.792751 C67.0797505,156.461184 73.6046817,163.432227 79.2474054,165.752902 C84.914162,168.083597 91.7595318,166.83408 95.3454401,161.597531 C99.0535157,156.184627 96.352819,150.157486 93.2175275,145.179458 C90.6900679,141.167376 87.2783981,136.038043 83.1767839,133.446823 C80.7074038,131.887682 76.142155,133.648229 74.3847495,131.660224 C71.4517348,128.338532 78.5083939,127.309459 80.2758131,126.629089 C82.7111465,125.691199 84.9381949,124.44068 86.856821,122.666106 C89.2701243,120.43461 90.8743201,116.490665 93.3807509,114.605869 C95.2192674,113.224085 97.0307469,114.108867 96.9396222,116.529744 C96.8755345,118.216141 95.7730254,119.763258 95.8311049,121.490738 C95.904205,123.638064 97.2380307,125.798415 98.2784548,127.598041 C101.841332,133.760455 106.348501,139.325666 109.60596,145.676459 C112.098371,141.757564 114.468616,137.584157 116.549464,133.433797 C118.273824,129.992865 120.315619,125.609034 119.058899,121.684127 C116.693661,114.298249 105.842809,114.946555 99.8596191,113.202041 C93.5239469,111.356322 86.5694277,107.997556 83.4291293,101.82913 C79.8101757,94.720811 82.8623535,85.8409228 88.4930607,80.7346364 C81.3032194,79.5963434 74.0422807,79.1394229 66.8574462,79.5963434 C59.6726117,80.0532638 52.5648828,81.4240252 45.6804595,83.9420977 C38.5837457,86.5393297 31.9877171,90.1335702 25.7231423,94.2699026 C19.5496922,98.3441099 13.6966807,102.944377 7.99988297,107.63182 C4.45302809,110.551702 -0.962384435,113.541725 0.147134256,106.372282 C0.979273274,100.999459 4.08552506,95.5845509 8.56665876,92.4642652 C12.7934443,89.5213368 17.7642483,87.6215097 22.1382353,84.8880032 C30.2092828,79.845846 36.366711,73.3156913 40.4563088,65.6582657 C44.5459066,58.0008402 46.5686753,49.2161438 46.3704039,39.6628992 C46.1450955,28.7639437 43.342259,17.7567702 34.005479,11.3498638 C31.1155233,9.36586713 27.3253353,7.64840738 24.9921417,4.99806839 C23.5061076,3.3106692 22.2664108,0.296597483 25.357642,0.0160322964 Z M115.6993,45.8523676 C114.176215,55.0028008 108.725755,61.0349523 100.935091,61.0349523 C100.756847,61.0349523 100.5766,61.0309442 100.396354,61.0249321 C94.4442065,60.6000762 91.3269397,55.3535072 91.3269397,55.2112206 C90.5538815,57.5308935 95.4365649,62.8225533 96.6992933,64.2163611 C102.522264,70.6443099 109.946426,73.6633917 117.967405,76.3397832 C115.341811,75.464019 115.819465,71.8086554 115.437942,69.6483035 C115.10749,67.785551 114.478629,66.1031619 113.442211,64.5159646 C112.785312,63.509938 111.438468,62.5019074 111.149072,61.3054973 C110.393037,58.156153 113.96793,59.2303169 115.237668,57.4346997 C116.937996,55.0308573 115.6993,48.6359751 115.6993,45.8523676 Z M129.059587,60.8355506 C124.998028,68.3496875 121.328005,76.6303685 119.069914,76.6293665 C119.032863,76.6293665 118.994811,76.6273625 118.958762,76.6223524 C120.715166,76.9991114 122.254272,76.7967036 123.791376,76.5932939 C124.91892,76.4449951 126.045462,76.2966964 127.259123,76.3748538 C130.88809,76.6143363 128.993497,79.6274059 127.460399,81.1594923 C132.92588,83.2116262 138.275202,85.8319046 143.37318,88.6886595 C145.690351,89.9872755 152.38852,95.5043894 148.319951,98.1757708 C146.023808,99.6828067 144.920297,98.3180575 145.081518,101.952379 C145.227718,105.263048 146.296181,108.62482 146.721763,111.917453 C147.611982,118.830379 148.388044,125.967757 147.441749,132.914751 C151.520331,131.490883 155.903331,131.006908 160.195205,131.496895 C161.612145,125.110029 163.708014,116.159999 161.595122,109.697982 C160.389471,106.010554 157.377348,104.308124 155.161315,101.415297 C152.703952,98.2058314 152.638862,93.7528611 157.643713,96.7569126 C161.46995,98.8851999 165.296188,101.011483 168.554648,102.854195 C160.90017,93.9191961 155.674017,81.9480808 151.177863,71.1703696 C148.476165,64.6953259 146.63164,57.0990235 142.75233,51.1941283 C138.65372,44.956563 133.609816,52.4145869 129.059587,60.8355506 Z M113.90184,158.441173 C113.518315,162.293934 116.207996,164.631643 119.347293,164.631643 C119.348295,164.631643 119.348295,164.631643 119.349296,164.631643 C120.489857,164.631643 121.689499,164.323022 122.82205,163.667701 C127.401318,161.014356 130.314305,155.266778 132.487279,150.668515 C135.382242,144.542174 137.130635,138.109215 137.805559,131.35561 C138.79291,119.738207 136.935368,106.348234 131.145443,96.0484855 C131.004249,95.9072009 130.861053,95.7649143 130.861053,95.6226276 C129.737515,93.5123766 128.472784,91.9602499 127.207052,90.828971 C127.256119,90.8690518 127.358259,90.9432011 127.460399,90.9432011 L125.477685,89.5253449 C124.485326,88.6756332 123.777357,87.9662041 122.786,86.2647766 C121.085673,88.3048864 120.785262,92.9322079 118.46809,94.2578784 C116.101851,95.6116054 115.198615,92.4833036 114.24531,91.0183525 C110.548249,85.3399135 100.976147,82.7246452 97.3201431,90.0614248 C93.8624102,97.0024071 101.279563,100.335121 106.700983,101.578626 C113.078713,103.042575 119.891038,103.704909 125.660935,107.020588 C131.95455,110.635871 136.698043,117.250195 136.580883,124.75331 C136.459717,132.456829 129.544251,137.971938 124.434256,142.794654 C120.17042,146.81876 114.521688,152.221644 113.90184,158.441173 Z M46.1230654,137.878751 C50.5160784,147.803744 56.326031,156.028312 61.2858199,159.147596 C56.8928068,151.916028 56.0426431,144.258603 59.5844911,138.444891 C53.6343467,135.609179 50.3748852,135.609179 46.26526,137.735462 L46.1230654,137.878751 Z M127.207052,90.828971 C127.198039,90.8199528 127.188026,90.8119367 127.178012,90.8029185 C127.178012,90.8029185 127.189027,90.8129387 127.207052,90.828971 Z" id="path-1"></path>
        <path d="M3.226,8.425 C-0.736,14.51 -0.736,21.302 2.944,23.708 C6.481,25.972 12.708,23 16.528,16.773 C20.491,10.548 20.491,3.755 16.953,1.491 C16.122,0.98 15.16,0.735 14.127,0.735 C10.584,0.735 6.185,3.604 3.226,8.425 Z" id="path-3"></path>
        <path d="M2.207,1.707 C-0.622,4.113 -0.34,9.915 3.198,14.585 C6.877,19.255 12.255,21.094 15.227,18.689 C18.34,16.283 18.057,10.623 14.378,5.811 C11.796,2.534 8.377,0.65 5.491,0.65 C4.265,0.65 3.136,0.99 2.207,1.707 Z" id="path-5"></path>
        <path d="M1.557,0.18 C0.707,0.18 0.142,0.887 0.142,1.595 L0.142,49.848 C0.142,50.557 0.707,51.264 1.557,51.264 L27.595,51.264 C28.443,51.264 29.009,50.557 29.009,49.848 L29.009,45.887 C29.009,45.18 28.443,44.472 27.595,44.472 L7.783,44.472 L7.783,1.595 C7.783,0.887 7.076,0.18 6.368,0.18 L1.557,0.18 Z" id="path-7"></path>
        <path d="M2.283,0.18 C1.576,0.18 0.868,0.887 0.868,1.595 L0.868,49.848 C0.868,50.557 1.576,51.264 2.283,51.264 L7.095,51.264 C7.802,51.264 8.509,50.557 8.509,49.848 L8.509,1.595 C8.509,0.887 7.802,0.18 7.095,0.18 L2.283,0.18 Z" id="path-9"></path>
        <path d="M0.198,26.792 C0.057,12.217 11.66,0.472 26.377,0.472 C40.953,0.472 52.699,12.217 52.699,26.792 C52.699,41.369 41.094,52.971 26.377,52.971 C11.66,52.971 0.198,41.369 0.198,26.792 Z M7.415,26.792 C7.415,37.264 15.906,45.755 26.377,45.755 C36.849,45.755 45.34,37.264 45.34,26.792 C45.34,16.462 36.849,7.689 26.377,7.689 C16.047,7.689 7.415,16.321 7.415,26.792 Z" id="path-11"></path>
        <path d="M1.66,0.613 C0.952,0.613 0.245,1.18 0.245,1.887 L0.386,1.887 L0.386,50.848 C0.386,51.557 1.095,52.264 1.802,52.264 L6.33,52.264 C7.18,52.264 7.745,51.557 7.745,50.848 L7.745,15.33 L7.887,15.33 L39.585,52.971 L41.424,52.971 C42.132,52.971 42.84,52.405 42.84,51.698 L42.84,2.736 C42.84,2.029 42.132,1.32 41.424,1.32 L36.755,1.32 C35.906,1.32 35.34,2.029 35.34,2.736 L35.34,37.264 L35.198,37.264 L3.5,0.613 L1.66,0.613 Z" id="path-13"></path>
        <path d="M2.482,0.18 C1.632,0.18 1.067,0.887 1.067,1.595 L0.924,1.595 L0.924,49.991 C0.924,50.698 1.491,51.405 2.34,51.405 L7.152,51.405 C7.858,51.405 8.566,50.698 8.566,49.991 L8.566,30.745 L28.095,30.745 C28.802,30.745 29.509,30.038 29.509,29.33 L29.509,25.368 C29.509,24.66 28.802,23.954 28.095,23.954 L8.566,23.954 L8.566,7.114 L31.632,7.114 C32.481,7.114 33.047,6.405 33.047,5.698 L33.047,1.595 C33.047,0.887 32.481,0.18 31.632,0.18 L2.482,0.18 Z" id="path-15"></path>
        <path d="M2.16,0.18 C1.453,0.18 0.745,0.887 0.745,1.595 L0.745,49.848 C0.745,50.557 1.453,51.264 2.16,51.264 L6.972,51.264 C7.68,51.264 8.387,50.557 8.387,49.848 L8.387,1.595 C8.387,0.887 7.68,0.18 6.972,0.18 L2.16,0.18 Z" id="path-17"></path>
        <path d="M0.358,14.056 C0.358,22.547 6.16,26.368 13.66,29.481 C20.877,32.453 24.699,35.283 24.699,39.67 C24.699,43.349 21.585,46.462 16.491,46.462 C10.972,46.462 5.312,41.792 4.887,41.369 C4.038,40.66 3.047,40.944 2.34,41.934 C1.774,42.925 1.207,43.915 0.5,44.906 C-0.207,46.18 0.217,46.745 0.642,47.17 C1.774,48.302 7.434,52.971 16.348,52.971 C25.83,52.971 32.623,46.887 32.623,39.245 C32.623,30.471 25.405,26.368 16.915,22.972 C10.972,20.425 7.716,17.877 7.716,13.774 C7.716,11.085 9.84,7.264 15.924,7.264 C20.17,7.264 25.265,10.661 25.83,10.943 C26.82,11.652 27.812,11.227 28.377,10.237 C28.943,9.245 29.651,8.255 30.216,7.405 C30.925,6.273 30.359,5.283 29.793,4.858 C29.085,4.434 23.707,0.613 16.348,0.613 C4.745,0.613 0.358,8.396 0.358,14.056 Z" id="path-19"></path>
        <path d="M35.971,0.18 C35.123,0.18 34.557,0.887 34.557,1.595 L34.557,21.972 L7.811,21.972 L7.811,1.595 C7.811,0.887 7.245,0.18 6.397,0.18 L1.585,0.18 C0.877,0.18 0.169,0.887 0.169,1.595 L0.169,49.848 C0.169,50.557 0.877,51.264 1.585,51.264 L6.397,51.264 C7.245,51.264 7.811,50.557 7.811,49.848 L7.811,28.764 L34.557,28.764 L34.557,49.848 C34.557,50.557 35.123,51.264 35.971,51.264 L40.783,51.264 C41.49,51.264 42.199,50.557 42.199,49.848 L42.199,1.595 C42.199,0.887 41.49,0.18 40.783,0.18 L35.971,0.18 Z" id="path-21"></path>
        <path d="M0.566,0.292 C0.283,0.292 0.142,0.434 0.142,0.716 L0.142,14.727 C0.142,15.01 0.283,15.152 0.566,15.152 L9.056,15.152 C9.34,15.152 9.481,15.01 9.481,14.727 L9.481,13.594 C9.481,13.312 9.34,13.17 9.056,13.17 L2.264,13.17 L2.264,8.642 L7.924,8.642 C8.208,8.642 8.349,8.5 8.349,8.217 L8.349,7.085 C8.349,6.802 8.208,6.66 7.924,6.66 L2.264,6.66 L2.264,2.273 L9.056,2.273 C9.34,2.273 9.481,2.132 9.481,1.849 L9.481,0.716 C9.481,0.434 9.34,0.292 9.056,0.292 L0.566,0.292 Z" id="path-23"></path>
        <path d="M0.717,0.151 C0.434,0.151 0.293,0.292 0.293,0.575 L0.293,15.152 C0.293,15.433 0.434,15.575 0.717,15.575 L2.132,15.575 C2.415,15.575 2.556,15.433 2.556,15.152 L2.556,4.68 L11.896,15.717 L12.463,15.717 C12.745,15.717 12.887,15.575 12.887,15.292 L12.887,0.859 C12.887,0.575 12.745,0.434 12.463,0.434 L11.047,0.434 C10.764,0.434 10.622,0.575 10.622,0.859 L10.622,10.905 L1.283,0.151 L0.717,0.151 Z" id="path-25"></path>
        <path d="M1.132,0.434 C0.849,0.434 0.707,0.575 0.707,0.859 L0.707,1.99 C0.707,2.273 0.849,2.415 1.132,2.415 L4.528,2.415 L4.528,15.01 C4.528,15.292 4.67,15.433 4.953,15.433 L6.368,15.433 C6.651,15.433 6.792,15.292 6.792,15.01 L6.792,2.415 L10.33,2.415 C10.614,2.415 10.755,2.273 10.755,1.99 L10.755,0.859 C10.755,0.575 10.614,0.434 10.33,0.434 L1.132,0.434 Z" id="path-27"></path>
        <path d="M1.142,0.292 C0.858,0.292 0.717,0.434 0.717,0.716 L0.858,0.716 L0.858,14.727 C0.858,15.01 1,15.152 1.283,15.152 L9.774,15.152 C10.056,15.152 10.199,15.01 10.199,14.727 L10.199,13.594 C10.199,13.312 10.056,13.17 9.774,13.17 L2.981,13.17 L2.981,8.642 L8.642,8.642 C8.924,8.642 9.065,8.5 9.065,8.217 L9.065,7.085 C9.065,6.802 8.924,6.66 8.642,6.66 L2.981,6.66 L2.981,2.273 L9.632,2.273 C9.915,2.273 10.056,2.132 10.056,1.849 L10.056,0.716 C10.056,0.434 9.915,0.292 9.632,0.292 L1.142,0.292 Z" id="path-29"></path>
        <path d="M0.434,0.292 L6.236,0.292 C8.784,0.292 10.906,2.273 10.906,4.82 C10.906,6.802 9.632,8.358 7.793,9.208 L10.764,14.585 C10.906,14.868 10.764,15.152 10.34,15.152 L8.641,15.152 C8.5,15.152 8.359,15.01 8.359,15.01 L5.528,9.348 L2.274,9.348 L2.274,14.868 C2.274,15.152 2.133,15.292 1.849,15.292 L0.434,15.292 C0.151,15.292 0.009,15.152 0.009,14.868 L0.009,0.716 C0.009,0.434 0.151,0.292 0.434,0.292 Z M2.133,2.415 L2.133,7.652 L5.953,7.652 C7.368,7.652 8.5,6.519 8.5,4.962 C8.5,3.547 7.227,2.415 5.953,2.415 L2.133,2.415 Z" id="path-31"></path>
        <path d="M1.302,0.434 C1.019,0.434 0.878,0.575 0.878,0.859 L0.878,1.99 C0.878,2.273 1.019,2.415 1.302,2.415 L4.698,2.415 L4.698,15.01 C4.698,15.292 4.84,15.433 5.122,15.433 L6.538,15.433 C6.82,15.433 6.963,15.292 6.963,15.01 L6.963,2.415 L10.5,2.415 C10.783,2.415 10.924,2.273 10.924,1.99 L10.924,0.859 C10.924,0.575 10.783,0.434 10.5,0.434 L1.302,0.434 Z" id="path-33"></path>
        <path d="M7.132,0.01 L7.415,0.01 C7.557,0.01 7.698,0.151 7.84,0.292 L14.349,14.727 C14.49,15.01 14.349,15.292 13.925,15.292 L12.509,15.292 C12.227,15.292 12.085,15.152 12.085,15.01 L10.811,12.038 L3.878,12.038 C3.453,13.028 3.028,14.018 2.604,15.01 C2.604,15.152 2.32,15.292 2.179,15.292 L0.764,15.292 C0.198,15.292 0.057,15.01 0.198,14.727 L6.707,0.292 C6.707,0.151 6.991,0.01 7.132,0.01 Z M7.132,4.396 L4.585,10.198 L9.821,10.198 L7.132,4.396 Z" id="path-35"></path>
        <path d="M0.453,0.292 C0.17,0.292 0.029,0.434 0.029,0.716 L0.029,14.868 C0.029,15.152 0.17,15.292 0.453,15.292 L1.868,15.292 C2.152,15.292 2.293,15.152 2.293,14.868 L2.293,0.716 C2.293,0.434 2.152,0.292 1.868,0.292 L0.453,0.292 Z" id="path-37"></path>
        <path d="M1.377,0.151 C1.095,0.151 0.953,0.292 0.953,0.575 L0.953,15.152 C0.953,15.433 1.095,15.575 1.377,15.575 L2.793,15.575 C3.076,15.575 3.217,15.433 3.217,15.152 L3.217,4.68 L12.557,15.717 L13.123,15.717 C13.406,15.717 13.547,15.575 13.547,15.292 L13.547,0.859 C13.547,0.575 13.264,0.434 13.123,0.434 L11.707,0.434 C11.425,0.434 11.284,0.575 11.284,0.859 L11.284,10.905 L1.943,0.151 L1.377,0.151 Z" id="path-39"></path>
        <path d="M13.518,0.151 C13.377,0.151 13.095,0.292 13.095,0.434 L8.707,11.33 L8.567,11.33 L4.038,0.434 C3.897,0.292 3.755,0.151 3.613,0.151 L3.331,0.151 C3.188,0.151 2.906,0.292 2.906,0.434 L0.075,14.868 C0.075,15.152 0.216,15.292 0.5,15.292 L1.915,15.292 C2.057,15.292 2.34,15.152 2.34,15.01 L3.897,5.387 L4.038,5.387 L7.858,15.152 C8,15.292 8.142,15.433 8.283,15.433 L8.848,15.433 C9.132,15.433 9.273,15.292 9.273,15.152 L13.095,5.387 L14.652,15.01 C14.652,15.152 14.933,15.292 15.076,15.292 L16.49,15.292 C16.774,15.292 16.915,15.152 16.915,14.868 L14.227,0.434 C14.085,0.292 13.943,0.151 13.802,0.151 L13.518,0.151 Z" id="path-41"></path>
        <path d="M0.868,0.292 C0.585,0.292 0.443,0.434 0.443,0.716 L0.443,14.727 C0.443,15.01 0.585,15.152 0.868,15.152 L9.359,15.152 C9.641,15.152 9.784,15.01 9.784,14.727 L9.784,13.594 C9.784,13.312 9.641,13.17 9.359,13.17 L2.566,13.17 L2.566,8.642 L8.227,8.642 C8.51,8.642 8.651,8.5 8.651,8.217 L8.651,7.085 C8.651,6.802 8.368,6.66 8.227,6.66 L2.566,6.66 L2.566,2.273 L9.359,2.273 C9.641,2.273 9.784,2.132 9.784,1.849 L9.784,0.716 C9.784,0.434 9.641,0.292 9.359,0.292 L0.868,0.292 Z" id="path-43"></path>
        <path d="M1.16,0.151 C0.877,0.151 0.736,0.292 0.736,0.575 L0.736,15.152 C0.736,15.433 0.877,15.575 1.16,15.575 L2.575,15.575 C2.859,15.575 3,15.433 3,15.152 L3,4.68 L12.34,15.717 L12.905,15.717 C13.189,15.717 13.33,15.575 13.33,15.292 L13.33,0.859 C13.33,0.575 13.047,0.434 12.905,0.434 L11.491,0.434 C11.207,0.434 11.067,0.575 11.067,0.859 L11.067,10.905 L1.727,0.151 L1.16,0.151 Z" id="path-45"></path>
        <path d="M0.434,0.434 C0.151,0.434 0.01,0.575 0.01,0.859 L0.01,1.99 C0.01,2.273 0.151,2.415 0.434,2.415 L3.83,2.415 L3.83,15.01 C3.83,15.292 3.971,15.433 4.255,15.433 L5.67,15.433 C5.953,15.433 6.095,15.292 6.095,15.01 L6.095,2.415 L9.632,2.415 C9.915,2.415 10.056,2.273 10.056,1.99 L10.056,0.859 C10.056,0.575 9.915,0.434 9.632,0.434 L0.434,0.434 Z" id="path-47"></path>
    </defs>
    <g id="Page-1" stroke="none" stroke-width="1" fill="none" fill-rule="evenodd">
        <g id="Tieup">
            <g id="Logo" transform="translate(87.000000, 0.000000)">
                <g id="Main">
                    <mask id="mask-2" fill="white">
                        <use xlink:href="#path-1"></use>
                    </mask>
                    <g id="Clip-5"></g>
                    <polygon id="Fill-4" fill="#FFFFFF" mask="url(#mask-2)" points="-6 192 200 192 200 -6 -6 -6"></polygon>
                </g>
                <g id="Dot" transform="translate(66.000000, 6.000000)">
                    <mask id="mask-4" fill="white">
                        <use xlink:href="#path-3"></use>
                    </mask>
                    <g id="Clip-2"></g>
                    <polygon id="Fill-1" fill="#FFFFFF" mask="url(#mask-4)" points="-4.782 29.463 24.555 29.463 24.555 -4.266 -4.782 -4.266"></polygon>
                </g>
                <g id="Dot" transform="translate(69.000000, 103.000000)">
                    <mask id="mask-6" fill="white">
                        <use xlink:href="#path-5"></use>
                    </mask>
                    <g id="Clip-8"></g>
                    <polygon id="Fill-7" fill="#FFFFFF" mask="url(#mask-6)" points="-4.709 24.746 22.367 24.746 22.367 -4.349 -4.709 -4.349"></polygon>
                </g>
            </g>
            <g id="Wordmark" transform="translate(0.000000, 219.000000)">
                <g id="Group-12" transform="translate(0.000000, 1.000000)">
                    <mask id="mask-8" fill="white">
                        <use xlink:href="#path-7"></use>
                    </mask>
                    <g id="Clip-11"></g>
                    <polygon id="Fill-10" fill="#FFFFFF" mask="url(#mask-8)" points="-4.858 56.264 34.01 56.264 34.01 -4.82 -4.858 -4.82"></polygon>
                </g>
                <g id="Group-15" transform="translate(43.000000, 1.000000)">
                    <mask id="mask-10" fill="white">
                        <use xlink:href="#path-9"></use>
                    </mask>
                    <g id="Clip-14"></g>
                    <polygon id="Fill-13" fill="#FFFFFF" mask="url(#mask-10)" points="-4.132 56.264 13.509 56.264 13.509 -4.82 -4.132 -4.82"></polygon>
                </g>
                <g id="Group-18" transform="translate(69.000000, 0.000000)">
                    <mask id="mask-12" fill="white">
                        <use xlink:href="#path-11"></use>
                    </mask>
                    <g id="Clip-17"></g>
                    <polygon id="Fill-16" fill="#FFFFFF" mask="url(#mask-12)" points="-4.803 57.972 57.698 57.972 57.698 -4.528 -4.803 -4.528"></polygon>
                </g>
                <g id="Group-21" transform="translate(139.000000, 0.000000)">
                    <mask id="mask-14" fill="white">
                        <use xlink:href="#path-13"></use>
                    </mask>
                    <g id="Clip-20"></g>
                    <polygon id="Fill-19" fill="#FFFFFF" mask="url(#mask-14)" points="-4.755 57.972 47.84 57.972 47.84 -4.386 -4.755 -4.386"></polygon>
                </g>
                <g id="Group-24" transform="translate(202.000000, 1.000000)">
                    <mask id="mask-16" fill="white">
                        <use xlink:href="#path-15"></use>
                    </mask>
                    <g id="Clip-23"></g>
                    <polygon id="Fill-22" fill="#FFFFFF" mask="url(#mask-16)" points="-4.075 56.405 38.047 56.405 38.047 -4.821 -4.075 -4.821"></polygon>
                </g>
                <g id="Group-27" transform="translate(251.000000, 1.000000)">
                    <mask id="mask-18" fill="white">
                        <use xlink:href="#path-17"></use>
                    </mask>
                    <g id="Clip-26"></g>
                    <polygon id="Fill-25" fill="#FFFFFF" mask="url(#mask-18)" points="-4.255 56.264 13.387 56.264 13.387 -4.82 -4.255 -4.82"></polygon>
                </g>
                <g id="Group-30" transform="translate(277.000000, 0.000000)">
                    <mask id="mask-20" fill="white">
                        <use xlink:href="#path-19"></use>
                    </mask>
                    <g id="Clip-29"></g>
                    <polygon id="Fill-28" fill="#FFFFFF" mask="url(#mask-20)" points="-4.878 57.972 37.623 57.972 37.623 -4.386 -4.878 -4.386"></polygon>
                </g>
                <g id="Group-33" transform="translate(327.000000, 1.000000)">
                    <mask id="mask-22" fill="white">
                        <use xlink:href="#path-21"></use>
                    </mask>
                    <g id="Clip-32"></g>
                    <polygon id="Fill-31" fill="#FFFFFF" mask="url(#mask-22)" points="-4.83 56.264 47.198 56.264 47.198 -4.82 -4.83 -4.82"></polygon>
                </g>
                <g id="Group-36" transform="translate(0.000000, 64.000000)">
                    <mask id="mask-24" fill="white">
                        <use xlink:href="#path-23"></use>
                    </mask>
                    <g id="Clip-35"></g>
                    <polygon id="Fill-34" fill="#FFFFFF" mask="url(#mask-24)" points="-4.858 20.151 14.481 20.151 14.481 -4.708 -4.858 -4.708"></polygon>
                </g>
                <g id="Group-39" transform="translate(29.000000, 64.000000)">
                    <mask id="mask-26" fill="white">
                        <use xlink:href="#path-25"></use>
                    </mask>
                    <g id="Clip-38"></g>
                    <polygon id="Fill-37" fill="#FFFFFF" mask="url(#mask-26)" points="-4.708 20.717 17.886 20.717 17.886 -4.848 -4.708 -4.848"></polygon>
                </g>
                <g id="Group-42" transform="translate(60.000000, 64.000000)">
                    <mask id="mask-28" fill="white">
                        <use xlink:href="#path-27"></use>
                    </mask>
                    <g id="Clip-41"></g>
                    <polygon id="Fill-40" fill="#FFFFFF" mask="url(#mask-28)" points="-4.292 20.434 15.755 20.434 15.755 -4.566 -4.292 -4.566"></polygon>
                </g>
                <g id="Group-45" transform="translate(89.000000, 64.000000)">
                    <mask id="mask-30" fill="white">
                        <use xlink:href="#path-29"></use>
                    </mask>
                    <g id="Clip-44"></g>
                    <polygon id="Fill-43" fill="#FFFFFF" mask="url(#mask-30)" points="-4.283 20.151 15.198 20.151 15.198 -4.708 -4.283 -4.708"></polygon>
                </g>
                <g id="Group-48" transform="translate(119.000000, 64.000000)">
                    <mask id="mask-32" fill="white">
                        <use xlink:href="#path-31"></use>
                    </mask>
                    <g id="Clip-47"></g>
                    <polygon id="Fill-46" fill="#FFFFFF" mask="url(#mask-32)" points="-4.991 20.292 15.905 20.292 15.905 -4.708 -4.991 -4.708"></polygon>
                </g>
                <g id="Group-51" transform="translate(147.000000, 64.000000)">
                    <mask id="mask-34" fill="white">
                        <use xlink:href="#path-33"></use>
                    </mask>
                    <g id="Clip-50"></g>
                    <polygon id="Fill-49" fill="#FFFFFF" mask="url(#mask-34)" points="-4.123 20.434 15.924 20.434 15.924 -4.566 -4.123 -4.566"></polygon>
                </g>
                <g id="Group-54" transform="translate(174.000000, 64.000000)">
                    <mask id="mask-36" fill="white">
                        <use xlink:href="#path-35"></use>
                    </mask>
                    <g id="Clip-53"></g>
                    <polygon id="Fill-52" fill="#FFFFFF" mask="url(#mask-36)" points="-4.853 20.292 19.402 20.292 19.402 -4.99 -4.853 -4.99"></polygon>
                </g>
                <g id="Group-57" transform="translate(207.000000, 64.000000)">
                    <mask id="mask-38" fill="white">
                        <use xlink:href="#path-37"></use>
                    </mask>
                    <g id="Clip-56"></g>
                    <polygon id="Fill-55" fill="#FFFFFF" mask="url(#mask-38)" points="-4.972 20.292 7.292 20.292 7.292 -4.708 -4.972 -4.708"></polygon>
                </g>
                <g id="Group-60" transform="translate(229.000000, 64.000000)">
                    <mask id="mask-40" fill="white">
                        <use xlink:href="#path-39"></use>
                    </mask>
                    <g id="Clip-59"></g>
                    <polygon id="Fill-58" fill="#FFFFFF" mask="url(#mask-40)" points="-4.047 20.717 18.547 20.717 18.547 -4.848 -4.047 -4.848"></polygon>
                </g>
                <g id="Group-63" transform="translate(262.000000, 64.000000)">
                    <mask id="mask-42" fill="white">
                        <use xlink:href="#path-41"></use>
                    </mask>
                    <g id="Clip-62"></g>
                    <polygon id="Fill-61" fill="#FFFFFF" mask="url(#mask-42)" points="-4.925 20.434 21.915 20.434 21.915 -4.848 -4.925 -4.848"></polygon>
                </g>
                <g id="Group-66" transform="translate(298.000000, 64.000000)">
                    <mask id="mask-44" fill="white">
                        <use xlink:href="#path-43"></use>
                    </mask>
                    <g id="Clip-65"></g>
                    <polygon id="Fill-64" fill="#FFFFFF" mask="url(#mask-44)" points="-4.557 20.151 14.783 20.151 14.783 -4.708 -4.557 -4.708"></polygon>
                </g>
                <g id="Group-69" transform="translate(327.000000, 64.000000)">
                    <mask id="mask-46" fill="white">
                        <use xlink:href="#path-45"></use>
                    </mask>
                    <g id="Clip-68"></g>
                    <polygon id="Fill-67" fill="#FFFFFF" mask="url(#mask-46)" points="-4.265 20.717 18.33 20.717 18.33 -4.848 -4.265 -4.848"></polygon>
                </g>
                <g id="Group-72" transform="translate(359.000000, 64.000000)">
                    <mask id="mask-48" fill="white">
                        <use xlink:href="#path-47"></use>
                    </mask>
                    <g id="Clip-71"></g>
                    <polygon id="Fill-70" fill="#FFFFFF" mask="url(#mask-48)" points="-4.99 20.434 15.057 20.434 15.057 -4.566 -4.99 -4.566"></polygon>
                </g>
            </g>
        </g>
    </g>
</svg>