<?xml version="1.0" encoding="UTF-8"?>
<svg width="370px" height="80px" viewBox="0 0 370 80" version="1.1" xmlns="http://www.w3.org/2000/svg" xmlns:xlink="http://www.w3.org/1999/xlink">
    <!-- Generator: Sketch 47.1 (45422) - http://www.bohemiancoding.com/sketch -->
    <title>Wordmark</title>
    <desc>Created with Sketch.</desc>
    <defs>
        <path d="M1.557,0.18 C0.707,0.18 0.142,0.887 0.142,1.595 L0.142,49.848 C0.142,50.557 0.707,51.264 1.557,51.264 L27.595,51.264 C28.443,51.264 29.009,50.557 29.009,49.848 L29.009,45.887 C29.009,45.18 28.443,44.472 27.595,44.472 L7.783,44.472 L7.783,1.595 C7.783,0.887 7.076,0.18 6.368,0.18 L1.557,0.18 Z" id="path-1"></path>
        <path d="M2.283,0.18 C1.576,0.18 0.868,0.887 0.868,1.595 L0.868,49.848 C0.868,50.557 1.576,51.264 2.283,51.264 L7.095,51.264 C7.802,51.264 8.509,50.557 8.509,49.848 L8.509,1.595 C8.509,0.887 7.802,0.18 7.095,0.18 L2.283,0.18 Z" id="path-3"></path>
        <path d="M0.198,26.792 C0.057,12.217 11.66,0.472 26.377,0.472 C40.953,0.472 52.699,12.217 52.699,26.792 C52.699,41.369 41.094,52.971 26.377,52.971 C11.66,52.971 0.198,41.369 0.198,26.792 Z M7.415,26.792 C7.415,37.264 15.906,45.755 26.377,45.755 C36.849,45.755 45.34,37.264 45.34,26.792 C45.34,16.462 36.849,7.689 26.377,7.689 C16.047,7.689 7.415,16.321 7.415,26.792 Z" id="path-5"></path>
        <path d="M1.66,0.613 C0.952,0.613 0.245,1.18 0.245,1.887 L0.386,1.887 L0.386,50.848 C0.386,51.557 1.095,52.264 1.802,52.264 L6.33,52.264 C7.18,52.264 7.745,51.557 7.745,50.848 L7.745,15.33 L7.887,15.33 L39.585,52.971 L41.424,52.971 C42.132,52.971 42.84,52.405 42.84,51.698 L42.84,2.736 C42.84,2.029 42.132,1.32 41.424,1.32 L36.755,1.32 C35.906,1.32 35.34,2.029 35.34,2.736 L35.34,37.264 L35.198,37.264 L3.5,0.613 L1.66,0.613 Z" id="path-7"></path>
        <path d="M2.482,0.18 C1.632,0.18 1.067,0.887 1.067,1.595 L0.924,1.595 L0.924,49.991 C0.924,50.698 1.491,51.405 2.34,51.405 L7.152,51.405 C7.858,51.405 8.566,50.698 8.566,49.991 L8.566,30.745 L28.095,30.745 C28.802,30.745 29.509,30.038 29.509,29.33 L29.509,25.368 C29.509,24.66 28.802,23.954 28.095,23.954 L8.566,23.954 L8.566,7.114 L31.632,7.114 C32.481,7.114 33.047,6.405 33.047,5.698 L33.047,1.595 C33.047,0.887 32.481,0.18 31.632,0.18 L2.482,0.18 Z" id="path-9"></path>
        <path d="M2.16,0.18 C1.453,0.18 0.745,0.887 0.745,1.595 L0.745,49.848 C0.745,50.557 1.453,51.264 2.16,51.264 L6.972,51.264 C7.68,51.264 8.387,50.557 8.387,49.848 L8.387,1.595 C8.387,0.887 7.68,0.18 6.972,0.18 L2.16,0.18 Z" id="path-11"></path>
        <path d="M0.358,14.056 C0.358,22.547 6.16,26.368 13.66,29.481 C20.877,32.453 24.699,35.283 24.699,39.67 C24.699,43.349 21.585,46.462 16.491,46.462 C10.972,46.462 5.312,41.792 4.887,41.369 C4.038,40.66 3.047,40.944 2.34,41.934 C1.774,42.925 1.207,43.915 0.5,44.906 C-0.207,46.18 0.217,46.745 0.642,47.17 C1.774,48.302 7.434,52.971 16.348,52.971 C25.83,52.971 32.623,46.887 32.623,39.245 C32.623,30.471 25.405,26.368 16.915,22.972 C10.972,20.425 7.716,17.877 7.716,13.774 C7.716,11.085 9.84,7.264 15.924,7.264 C20.17,7.264 25.265,10.661 25.83,10.943 C26.82,11.652 27.812,11.227 28.377,10.237 C28.943,9.245 29.651,8.255 30.216,7.405 C30.925,6.273 30.359,5.283 29.793,4.858 C29.085,4.434 23.707,0.613 16.348,0.613 C4.745,0.613 0.358,8.396 0.358,14.056 Z" id="path-13"></path>
        <path d="M35.971,0.18 C35.123,0.18 34.557,0.887 34.557,1.595 L34.557,21.972 L7.811,21.972 L7.811,1.595 C7.811,0.887 7.245,0.18 6.397,0.18 L1.585,0.18 C0.877,0.18 0.169,0.887 0.169,1.595 L0.169,49.848 C0.169,50.557 0.877,51.264 1.585,51.264 L6.397,51.264 C7.245,51.264 7.811,50.557 7.811,49.848 L7.811,28.764 L34.557,28.764 L34.557,49.848 C34.557,50.557 35.123,51.264 35.971,51.264 L40.783,51.264 C41.49,51.264 42.199,50.557 42.199,49.848 L42.199,1.595 C42.199,0.887 41.49,0.18 40.783,0.18 L35.971,0.18 Z" id="path-15"></path>
        <path d="M0.566,0.292 C0.283,0.292 0.142,0.434 0.142,0.716 L0.142,14.727 C0.142,15.01 0.283,15.152 0.566,15.152 L9.056,15.152 C9.34,15.152 9.481,15.01 9.481,14.727 L9.481,13.594 C9.481,13.312 9.34,13.17 9.056,13.17 L2.264,13.17 L2.264,8.642 L7.924,8.642 C8.208,8.642 8.349,8.5 8.349,8.217 L8.349,7.085 C8.349,6.802 8.208,6.66 7.924,6.66 L2.264,6.66 L2.264,2.273 L9.056,2.273 C9.34,2.273 9.481,2.132 9.481,1.849 L9.481,0.716 C9.481,0.434 9.34,0.292 9.056,0.292 L0.566,0.292 Z" id="path-17"></path>
        <path d="M0.717,0.151 C0.434,0.151 0.293,0.292 0.293,0.575 L0.293,15.152 C0.293,15.433 0.434,15.575 0.717,15.575 L2.132,15.575 C2.415,15.575 2.556,15.433 2.556,15.152 L2.556,4.68 L11.896,15.717 L12.463,15.717 C12.745,15.717 12.887,15.575 12.887,15.292 L12.887,0.859 C12.887,0.575 12.745,0.434 12.463,0.434 L11.047,0.434 C10.764,0.434 10.622,0.575 10.622,0.859 L10.622,10.905 L1.283,0.151 L0.717,0.151 Z" id="path-19"></path>
        <path d="M1.132,0.434 C0.849,0.434 0.707,0.575 0.707,0.859 L0.707,1.99 C0.707,2.273 0.849,2.415 1.132,2.415 L4.528,2.415 L4.528,15.01 C4.528,15.292 4.67,15.433 4.953,15.433 L6.368,15.433 C6.651,15.433 6.792,15.292 6.792,15.01 L6.792,2.415 L10.33,2.415 C10.614,2.415 10.755,2.273 10.755,1.99 L10.755,0.859 C10.755,0.575 10.614,0.434 10.33,0.434 L1.132,0.434 Z" id="path-21"></path>
        <path d="M1.142,0.292 C0.858,0.292 0.717,0.434 0.717,0.716 L0.858,0.716 L0.858,14.727 C0.858,15.01 1,15.152 1.283,15.152 L9.774,15.152 C10.056,15.152 10.199,15.01 10.199,14.727 L10.199,13.594 C10.199,13.312 10.056,13.17 9.774,13.17 L2.981,13.17 L2.981,8.642 L8.642,8.642 C8.924,8.642 9.065,8.5 9.065,8.217 L9.065,7.085 C9.065,6.802 8.924,6.66 8.642,6.66 L2.981,6.66 L2.981,2.273 L9.632,2.273 C9.915,2.273 10.056,2.132 10.056,1.849 L10.056,0.716 C10.056,0.434 9.915,0.292 9.632,0.292 L1.142,0.292 Z" id="path-23"></path>
        <path d="M0.434,0.292 L6.236,0.292 C8.784,0.292 10.906,2.273 10.906,4.82 C10.906,6.802 9.632,8.358 7.793,9.208 L10.764,14.585 C10.906,14.868 10.764,15.152 10.34,15.152 L8.641,15.152 C8.5,15.152 8.359,15.01 8.359,15.01 L5.528,9.348 L2.274,9.348 L2.274,14.868 C2.274,15.152 2.133,15.292 1.849,15.292 L0.434,15.292 C0.151,15.292 0.009,15.152 0.009,14.868 L0.009,0.716 C0.009,0.434 0.151,0.292 0.434,0.292 Z M2.133,2.415 L2.133,7.652 L5.953,7.652 C7.368,7.652 8.5,6.519 8.5,4.962 C8.5,3.547 7.227,2.415 5.953,2.415 L2.133,2.415 Z" id="path-25"></path>
        <path d="M1.302,0.434 C1.019,0.434 0.878,0.575 0.878,0.859 L0.878,1.99 C0.878,2.273 1.019,2.415 1.302,2.415 L4.698,2.415 L4.698,15.01 C4.698,15.292 4.84,15.433 5.122,15.433 L6.538,15.433 C6.82,15.433 6.963,15.292 6.963,15.01 L6.963,2.415 L10.5,2.415 C10.783,2.415 10.924,2.273 10.924,1.99 L10.924,0.859 C10.924,0.575 10.783,0.434 10.5,0.434 L1.302,0.434 Z" id="path-27"></path>
        <path d="M7.132,0.01 L7.415,0.01 C7.557,0.01 7.698,0.151 7.84,0.292 L14.349,14.727 C14.49,15.01 14.349,15.292 13.925,15.292 L12.509,15.292 C12.227,15.292 12.085,15.152 12.085,15.01 L10.811,12.038 L3.878,12.038 C3.453,13.028 3.028,14.018 2.604,15.01 C2.604,15.152 2.32,15.292 2.179,15.292 L0.764,15.292 C0.198,15.292 0.057,15.01 0.198,14.727 L6.707,0.292 C6.707,0.151 6.991,0.01 7.132,0.01 Z M7.132,4.396 L4.585,10.198 L9.821,10.198 L7.132,4.396 Z" id="path-29"></path>
        <path d="M0.453,0.292 C0.17,0.292 0.029,0.434 0.029,0.716 L0.029,14.868 C0.029,15.152 0.17,15.292 0.453,15.292 L1.868,15.292 C2.152,15.292 2.293,15.152 2.293,14.868 L2.293,0.716 C2.293,0.434 2.152,0.292 1.868,0.292 L0.453,0.292 Z" id="path-31"></path>
        <path d="M1.377,0.151 C1.095,0.151 0.953,0.292 0.953,0.575 L0.953,15.152 C0.953,15.433 1.095,15.575 1.377,15.575 L2.793,15.575 C3.076,15.575 3.217,15.433 3.217,15.152 L3.217,4.68 L12.557,15.717 L13.123,15.717 C13.406,15.717 13.547,15.575 13.547,15.292 L13.547,0.859 C13.547,0.575 13.264,0.434 13.123,0.434 L11.707,0.434 C11.425,0.434 11.284,0.575 11.284,0.859 L11.284,10.905 L1.943,0.151 L1.377,0.151 Z" id="path-33"></path>
        <path d="M13.518,0.151 C13.377,0.151 13.095,0.292 13.095,0.434 L8.707,11.33 L8.567,11.33 L4.038,0.434 C3.897,0.292 3.755,0.151 3.613,0.151 L3.331,0.151 C3.188,0.151 2.906,0.292 2.906,0.434 L0.075,14.868 C0.075,15.152 0.216,15.292 0.5,15.292 L1.915,15.292 C2.057,15.292 2.34,15.152 2.34,15.01 L3.897,5.387 L4.038,5.387 L7.858,15.152 C8,15.292 8.142,15.433 8.283,15.433 L8.848,15.433 C9.132,15.433 9.273,15.292 9.273,15.152 L13.095,5.387 L14.652,15.01 C14.652,15.152 14.933,15.292 15.076,15.292 L16.49,15.292 C16.774,15.292 16.915,15.152 16.915,14.868 L14.227,0.434 C14.085,0.292 13.943,0.151 13.802,0.151 L13.518,0.151 Z" id="path-35"></path>
        <path d="M0.868,0.292 C0.585,0.292 0.443,0.434 0.443,0.716 L0.443,14.727 C0.443,15.01 0.585,15.152 0.868,15.152 L9.359,15.152 C9.641,15.152 9.784,15.01 9.784,14.727 L9.784,13.594 C9.784,13.312 9.641,13.17 9.359,13.17 L2.566,13.17 L2.566,8.642 L8.227,8.642 C8.51,8.642 8.651,8.5 8.651,8.217 L8.651,7.085 C8.651,6.802 8.368,6.66 8.227,6.66 L2.566,6.66 L2.566,2.273 L9.359,2.273 C9.641,2.273 9.784,2.132 9.784,1.849 L9.784,0.716 C9.784,0.434 9.641,0.292 9.359,0.292 L0.868,0.292 Z" id="path-37"></path>
        <path d="M1.16,0.151 C0.877,0.151 0.736,0.292 0.736,0.575 L0.736,15.152 C0.736,15.433 0.877,15.575 1.16,15.575 L2.575,15.575 C2.859,15.575 3,15.433 3,15.152 L3,4.68 L12.34,15.717 L12.905,15.717 C13.189,15.717 13.33,15.575 13.33,15.292 L13.33,0.859 C13.33,0.575 13.047,0.434 12.905,0.434 L11.491,0.434 C11.207,0.434 11.067,0.575 11.067,0.859 L11.067,10.905 L1.727,0.151 L1.16,0.151 Z" id="path-39"></path>
        <path d="M0.434,0.434 C0.151,0.434 0.01,0.575 0.01,0.859 L0.01,1.99 C0.01,2.273 0.151,2.415 0.434,2.415 L3.83,2.415 L3.83,15.01 C3.83,15.292 3.971,15.433 4.255,15.433 L5.67,15.433 C5.953,15.433 6.095,15.292 6.095,15.01 L6.095,2.415 L9.632,2.415 C9.915,2.415 10.056,2.273 10.056,1.99 L10.056,0.859 C10.056,0.575 9.915,0.434 9.632,0.434 L0.434,0.434 Z" id="path-41"></path>
    </defs>
    <g id="Page-1" stroke="none" stroke-width="1" fill="none" fill-rule="evenodd">
        <g id="Tieup" transform="translate(0.000000, -219.000000)">
            <g id="Wordmark" transform="translate(0.000000, 219.000000)">
                <g id="Group-12" transform="translate(0.000000, 1.000000)">
                    <mask id="mask-2" fill="white">
                        <use xlink:href="#path-1"></use>
                    </mask>
                    <g id="Clip-11"></g>
                    <polygon id="Fill-10" fill="#FFFFFF" mask="url(#mask-2)" points="-4.858 56.264 34.01 56.264 34.01 -4.82 -4.858 -4.82"></polygon>
                </g>
                <g id="Group-15" transform="translate(43.000000, 1.000000)">
                    <mask id="mask-4" fill="white">
                        <use xlink:href="#path-3"></use>
                    </mask>
                    <g id="Clip-14"></g>
                    <polygon id="Fill-13" fill="#FFFFFF" mask="url(#mask-4)" points="-4.132 56.264 13.509 56.264 13.509 -4.82 -4.132 -4.82"></polygon>
                </g>
                <g id="Group-18" transform="translate(69.000000, 0.000000)">
                    <mask id="mask-6" fill="white">
                        <use xlink:href="#path-5"></use>
                    </mask>
                    <g id="Clip-17"></g>
                    <polygon id="Fill-16" fill="#FFFFFF" mask="url(#mask-6)" points="-4.803 57.972 57.698 57.972 57.698 -4.528 -4.803 -4.528"></polygon>
                </g>
                <g id="Group-21" transform="translate(139.000000, 0.000000)">
                    <mask id="mask-8" fill="white">
                        <use xlink:href="#path-7"></use>
                    </mask>
                    <g id="Clip-20"></g>
                    <polygon id="Fill-19" fill="#FFFFFF" mask="url(#mask-8)" points="-4.755 57.972 47.84 57.972 47.84 -4.386 -4.755 -4.386"></polygon>
                </g>
                <g id="Group-24" transform="translate(202.000000, 1.000000)">
                    <mask id="mask-10" fill="white">
                        <use xlink:href="#path-9"></use>
                    </mask>
                    <g id="Clip-23"></g>
                    <polygon id="Fill-22" fill="#FFFFFF" mask="url(#mask-10)" points="-4.075 56.405 38.047 56.405 38.047 -4.821 -4.075 -4.821"></polygon>
                </g>
                <g id="Group-27" transform="translate(251.000000, 1.000000)">
                    <mask id="mask-12" fill="white">
                        <use xlink:href="#path-11"></use>
                    </mask>
                    <g id="Clip-26"></g>
                    <polygon id="Fill-25" fill="#FFFFFF" mask="url(#mask-12)" points="-4.255 56.264 13.387 56.264 13.387 -4.82 -4.255 -4.82"></polygon>
                </g>
                <g id="Group-30" transform="translate(277.000000, 0.000000)">
                    <mask id="mask-14" fill="white">
                        <use xlink:href="#path-13"></use>
                    </mask>
                    <g id="Clip-29"></g>
                    <polygon id="Fill-28" fill="#FFFFFF" mask="url(#mask-14)" points="-4.878 57.972 37.623 57.972 37.623 -4.386 -4.878 -4.386"></polygon>
                </g>
                <g id="Group-33" transform="translate(327.000000, 1.000000)">
                    <mask id="mask-16" fill="white">
                        <use xlink:href="#path-15"></use>
                    </mask>
                    <g id="Clip-32"></g>
                    <polygon id="Fill-31" fill="#FFFFFF" mask="url(#mask-16)" points="-4.83 56.264 47.198 56.264 47.198 -4.82 -4.83 -4.82"></polygon>
                </g>
                <g id="Group-36" transform="translate(0.000000, 64.000000)">
                    <mask id="mask-18" fill="white">
                        <use xlink:href="#path-17"></use>
                    </mask>
                    <g id="Clip-35"></g>
                    <polygon id="Fill-34" fill="#FFFFFF" mask="url(#mask-18)" points="-4.858 20.151 14.481 20.151 14.481 -4.708 -4.858 -4.708"></polygon>
                </g>
                <g id="Group-39" transform="translate(29.000000, 64.000000)">
                    <mask id="mask-20" fill="white">
                        <use xlink:href="#path-19"></use>
                    </mask>
                    <g id="Clip-38"></g>
                    <polygon id="Fill-37" fill="#FFFFFF" mask="url(#mask-20)" points="-4.708 20.717 17.886 20.717 17.886 -4.848 -4.708 -4.848"></polygon>
                </g>
                <g id="Group-42" transform="translate(60.000000, 64.000000)">
                    <mask id="mask-22" fill="white">
                        <use xlink:href="#path-21"></use>
                    </mask>
                    <g id="Clip-41"></g>
                    <polygon id="Fill-40" fill="#FFFFFF" mask="url(#mask-22)" points="-4.292 20.434 15.755 20.434 15.755 -4.566 -4.292 -4.566"></polygon>
                </g>
                <g id="Group-45" transform="translate(89.000000, 64.000000)">
                    <mask id="mask-24" fill="white">
                        <use xlink:href="#path-23"></use>
                    </mask>
                    <g id="Clip-44"></g>
                    <polygon id="Fill-43" fill="#FFFFFF" mask="url(#mask-24)" points="-4.283 20.151 15.198 20.151 15.198 -4.708 -4.283 -4.708"></polygon>
                </g>
                <g id="Group-48" transform="translate(119.000000, 64.000000)">
                    <mask id="mask-26" fill="white">
                        <use xlink:href="#path-25"></use>
                    </mask>
                    <g id="Clip-47"></g>
                    <polygon id="Fill-46" fill="#FFFFFF" mask="url(#mask-26)" points="-4.991 20.292 15.905 20.292 15.905 -4.708 -4.991 -4.708"></polygon>
                </g>
                <g id="Group-51" transform="translate(147.000000, 64.000000)">
                    <mask id="mask-28" fill="white">
                        <use xlink:href="#path-27"></use>
                    </mask>
                    <g id="Clip-50"></g>
                    <polygon id="Fill-49" fill="#FFFFFF" mask="url(#mask-28)" points="-4.123 20.434 15.924 20.434 15.924 -4.566 -4.123 -4.566"></polygon>
                </g>
                <g id="Group-54" transform="translate(174.000000, 64.000000)">
                    <mask id="mask-30" fill="white">
                        <use xlink:href="#path-29"></use>
                    </mask>
                    <g id="Clip-53"></g>
                    <polygon id="Fill-52" fill="#FFFFFF" mask="url(#mask-30)" points="-4.853 20.292 19.402 20.292 19.402 -4.99 -4.853 -4.99"></polygon>
                </g>
                <g id="Group-57" transform="translate(207.000000, 64.000000)">
                    <mask id="mask-32" fill="white">
                        <use xlink:href="#path-31"></use>
                    </mask>
                    <g id="Clip-56"></g>
                    <polygon id="Fill-55" fill="#FFFFFF" mask="url(#mask-32)" points="-4.972 20.292 7.292 20.292 7.292 -4.708 -4.972 -4.708"></polygon>
                </g>
                <g id="Group-60" transform="translate(229.000000, 64.000000)">
                    <mask id="mask-34" fill="white">
                        <use xlink:href="#path-33"></use>
                    </mask>
                    <g id="Clip-59"></g>
                    <polygon id="Fill-58" fill="#FFFFFF" mask="url(#mask-34)" points="-4.047 20.717 18.547 20.717 18.547 -4.848 -4.047 -4.848"></polygon>
                </g>
                <g id="Group-63" transform="translate(262.000000, 64.000000)">
                    <mask id="mask-36" fill="white">
                        <use xlink:href="#path-35"></use>
                    </mask>
                    <g id="Clip-62"></g>
                    <polygon id="Fill-61" fill="#FFFFFF" mask="url(#mask-36)" points="-4.925 20.434 21.915 20.434 21.915 -4.848 -4.925 -4.848"></polygon>
                </g>
                <g id="Group-66" transform="translate(298.000000, 64.000000)">
                    <mask id="mask-38" fill="white">
                        <use xlink:href="#path-37"></use>
                    </mask>
                    <g id="Clip-65"></g>
                    <polygon id="Fill-64" fill="#FFFFFF" mask="url(#mask-38)" points="-4.557 20.151 14.783 20.151 14.783 -4.708 -4.557 -4.708"></polygon>
                </g>
                <g id="Group-69" transform="translate(327.000000, 64.000000)">
                    <mask id="mask-40" fill="white">
                        <use xlink:href="#path-39"></use>
                    </mask>
                    <g id="Clip-68"></g>
                    <polygon id="Fill-67" fill="#FFFFFF" mask="url(#mask-40)" points="-4.265 20.717 18.33 20.717 18.33 -4.848 -4.265 -4.848"></polygon>
                </g>
                <g id="Group-72" transform="translate(359.000000, 64.000000)">
                    <mask id="mask-42" fill="white">
                        <use xlink:href="#path-41"></use>
                    </mask>
                    <g id="Clip-71"></g>
                    <polygon id="Fill-70" fill="#FFFFFF" mask="url(#mask-42)" points="-4.99 20.434 15.057 20.434 15.057 -4.566 -4.99 -4.566"></polygon>
                </g>
            </g>
        </g>
    </g>
</svg>