<?xml version="1.0" encoding="UTF-8"?>
<svg width="139px" height="134px" viewBox="0 0 139 134" version="1.1" xmlns="http://www.w3.org/2000/svg" xmlns:xlink="http://www.w3.org/1999/xlink">
    <!-- Generator: Sketch 47.1 (45422) - http://www.bohemiancoding.com/sketch -->
    <title>lionfish</title>
    <desc>Created with Sketch.</desc>
    <defs></defs>
    <g id="Page-1" stroke="none" stroke-width="1" fill="none" fill-rule="evenodd">
        <g id="lionfish" fill-rule="nonzero" fill="#00548E">
            <path d="M49.2,21.7 C51.7,23.3 56.1,21.2 58.8,16.8 C61.6,12.4 61.6,7.6 59.1,6 C56.5,4.4 52.1,6.5 49.4,10.9 C46.6,15.2 46.6,20 49.2,21.7 Z" id="Shape"></path>
            <path d="M133.8,73.7 C129.4,64.7 125.1,58.2 121.1,54.2 C120.3,53.4 119.8,53 119.4,52.9 C119,52.7 118.8,52.7 118.3,53.2 C117.8,53.7 117.3,53.7 116.7,53.5 C113.1,51.5 108.3,42.2 107.9,31.6 C107.7,24.5 109.6,19.8 111.9,16.1 C113.7,13.3 114.3,12.8 119.2,9.4 C120.5,8.6 121.1,7.9 121.4,6.8 C121.8,5.5 121.2,4.5 120.3,4.6 C120.1,4.6 119.5,4.9 119,5.2 C114.5,7.7 111.6,8.7 109.1,9 C107,9.2 105.1,8.8 103.1,7.9 C102.2,7.5 101.5,7.3 100.9,7.4 C100.1,7.5 99.5,8.2 99.4,9.2 C99.3,10 99.5,10.3 100.3,11 C101,11.7 101.4,12.4 101.3,13.1 C101.2,13.8 100.7,14.8 100.1,15.6 C94.5,23.5 87.9,36.8 88.7,19.3 C88.8,13.9 89.3,11.9 91.3,9.8 C91.7,9.4 92.6,8.5 94,7.1 C94.4,6.6 94.8,6.1 94.8,5.7 C94.8,4.9 94.4,4.4 93.7,4.4 C93.5,4.4 93.3,4.4 93,4.6 C92.7,4.8 92.3,4.9 92,5.1 C90.7,5.8 86,9.9 84.2,9.9 C82.2,9.9 80.8,9.6 78.4,8.5 C78,8.3 77.7,8.3 77.4,8.3 C76.8,8.3 76.4,8.8 76.3,9.5 C76.3,10 76.6,10.5 77,10.8 C77.5,11.3 78,11.8 78.5,12.3 C81,14.7 81.7,17.2 81.7,22.9 C81.7,24 81.7,25.1 81.7,26.2 C80.6,19.9 76.7,15.6 71.5,15.4 C68.4,15.4 66.3,17.6 66.3,20.7 C66.3,22.9 67.5,24.7 69.6,25.7 C70,25.9 70.7,26.1 71,26.1 C71.5,26.1 71.9,25.8 71.9,25.4 C71.9,25.3 71.9,25.2 71.8,25.1 C71.7,24.8 71.7,24.6 71.7,24.4 C71.7,23.5 72.4,22.8 73.4,22.8 C75.8,22.9 77.9,25.8 77.9,29.3 C77.9,33.2 75.6,35.9 72.4,35.9 C68,35.7 64.6,30.8 64.5,24.9 C64.5,23.4 64.8,21.3 65.3,19.8 C65.4,19.5 65.5,19.3 65.5,19.1 C65.5,18.8 65.2,18.5 64.8,18.5 C64.6,18.5 64.4,18.6 64.1,18.9 C62.5,20.4 61.1,24.1 60.4,27.8 C57.8,26.7 54.7,27.1 52.5,29.2 C50,31.6 49.1,35.4 50.4,38.4 C50.5,38.6 50.6,38.8 50.8,39 C51.2,39.5 51.9,39.5 52.4,39.1 C52.5,39 52.7,38.8 52.7,38.4 L52.8,37.6 C53,36.5 53.4,35.6 54,35.1 C55.2,34 56.8,34 58,35.2 C58.9,36.1 59.2,37.4 59,38.8 C58.9,39.4 58.7,40 58.5,40.5 C58,41.6 57.3,42.7 56.3,43.7 C53.1,46.8 48.5,47.1 45.7,44.3 C43.4,41.9 43.5,38.9 46.1,34.3 L46.3,33.9 C49.5,28.9 50.5,27.7 52.1,27.6 L53.8,27.5 C54.4,27.5 54.9,27.2 55.1,26.8 C55.4,26.3 55.2,25.7 54.7,25.4 C54.5,25.3 54.2,25.1 53.7,25.1 C51.8,24.8 50,24.2 48.7,23.4 C47.5,22.6 45.9,21.2 44.2,19.1 C44,18.9 43.8,18.7 43.7,18.7 C43.3,18.5 42.7,18.6 42.4,19.2 C42.2,19.5 42.1,19.8 42.3,20.1 L43,22 C43.8,23.8 41.3,27.7 39.1,32 C39.4,21.1 42.4,9 44.5,7.9 C45.5,7.2 45.9,6.7 45.8,5.8 C45.6,4.8 44.6,3.8 43.3,3.6 C42.6,3.5 42,3.6 41.3,3.8 C37.1,5.1 34.3,5.6 31,5.3 C27.5,4.9 28,4.6 20.1,1 C19.5,0.8 18.8,0.5 18.4,0.4 C16.8,0.1 16.3,1 16.9,2.6 C17.3,3.5 18.1,4.3 19.2,5.1 C20.9,6.2 22.4,7.2 23.9,8.2 C28.3,11.1 30.5,13.7 32.5,23 C36.3,55.6 10.9,61.8 5.6,66 C2.7,68.4 1.2,71.5 0.5,74.2 C-0.7,79 0.9,80.4 5.4,76.6 C24.5,60.6 39.2,53.6 62.6,57.3 C59.4,60.2 57.6,64.3 58,68.7 C58.6,75 65.4,79.8 75.8,81.3 C80.2,81.9 82.9,83.3 83.9,85.5 C85.4,88.6 83.5,92.7 80.8,97.4 C80.4,98.1 79.9,98.9 79.5,99.7 C78.8,100.8 78.2,102 77.5,103.1 C73.7,95.7 66.7,88.2 67.9,85 L68.6,82.4 C68.8,82 68.6,81.6 68.3,81.2 C67.8,80.6 66.9,80.4 66.5,80.7 C66.3,80.8 66.1,81.1 65.9,81.4 C63.9,84.4 62,86.5 60.5,87.7 C58.9,88.9 56.6,89.9 54.1,90.5 C53.5,90.6 53.1,90.8 52.8,91 C52.2,91.5 52,92.4 52.4,93 C52.8,93.5 53.5,93.8 54.2,93.8 L56.5,93.7 C58.6,93.7 60.2,95.1 65,101.3 L65.3,101.8 C69.3,107.6 69.8,111.5 67,114.9 C63.8,118.9 57.6,119.2 53,115.4 C48.9,112.1 47.5,107.2 49.8,104.3 C51.2,102.6 53.3,102.4 55,103.7 C55.8,104.4 56.5,105.4 56.9,106.9 L57.2,107.9 C57.2,108.3 57.4,108.6 57.6,108.7 C58.2,109.2 59.1,109 59.7,108.4 C59.9,108.1 60.1,107.8 60.2,107.5 C61.5,103.4 59.9,98.5 56.3,95.6 C52.8,92.8 48.1,92.8 44.7,95.3 C44.5,95.2 44.3,95 44.1,94.9 C40.8,92.7 37.4,88.8 35.4,85.1 C35.2,84.8 35.1,84.6 35,84.3 L34.8,83.9 C33.9,82.2 33.2,81.7 32.1,82.3 C31.1,82.8 31,83.4 31.7,86.4 C32.5,89.5 32.1,91.4 30.4,92.8 C29,88.8 27.9,84.7 27.5,80.7 C27.5,80.7 25.6,71 31.4,68.4 C34.9,66.8 38.6,67.3 39.9,69.9 C40.7,71.5 40.3,73.1 39,73.8 C38.6,74 38.6,74 37.7,74.1 C37.5,74.1 37.3,74.2 37.2,74.3 C36.7,74.6 36.5,75.2 36.9,76 C38.3,78.7 42.5,79.4 46,77.5 C51.5,74.6 53.7,68 50.9,62.7 C50,61.1 48.9,59.7 47.5,58.8 C46.9,58.4 46.4,58.3 45.9,58.5 C45.8,58.6 45.5,58.8 45.3,59.2 C44.6,60.3 44.1,61 43.3,61.4 C42.4,61.9 40.9,62.2 39.4,62.3 L35.5,62.5 C32.1,62.7 28.2,63.8 24.9,65.5 C20.8,67.6 16.6,71.4 14.4,74.9 C11.7,79 10.3,83.8 11.1,85.4 C11.4,85.9 11.9,86.2 12.4,86.2 L14.2,85.8 C14.8,85.7 15.4,85.8 16.1,86.1 C16.4,86.8 16.7,87.7 17.1,88.9 C17.3,89.4 17.5,89.9 17.7,90.5 C17.7,90.5 19.6,95.9 23.1,101.7 C23.7,102.7 24.3,103.7 25,104.7 C28.6,110.2 32.6,115.4 32.9,115.9 C36,120.5 31,125 27,124.9 C25.9,124.9 24.9,124.4 24.2,123.6 C23.4,122.7 23.1,121.4 23.3,120 C23.5,118.7 24.1,117.5 25.2,116.4 L26,115.6 L26,115.6 C26.2,115.5 26.3,115.3 26.3,115.2 C26.4,114.8 26,114.3 25.5,114.3 C25.2,114.3 24.9,114.3 24.7,114.3 C24,114.5 23.3,114.7 22.6,115.1 C19.7,116.6 17.5,119.7 17,123.3 C16.6,125.8 17.4,128.4 18.9,130.4 C20.3,132.2 22.4,133.3 24.6,133.5 C30.8,134 34.8,129.1 38,123.4 L37.9,122.8 L38,123.4 C38,123.4 38,123.4 38,123.3 C39.3,121.2 40.5,119.9 41.9,119.2 C43.2,118.6 45,118.5 47,118.8 C47.4,118.9 47.8,118.9 48,118.9 C48.6,119.5 49.3,120 50,120.6 C58.9,127.8 69.2,128.2 75.4,121.8 C76.8,123.5 78.7,124.6 81,124.8 C94,125.7 102.7,101.5 103,100.5 C103.8,100 105.4,99.5 107.3,99.2 C108.6,99 109.7,99 111.5,99.3 C111.2,100.4 110.9,101.5 110.5,102.6 C110.1,103.7 109.7,104.9 109.3,106.1 C106.4,114 104.9,116 103.3,117 C102.7,117.4 102.1,117.7 101.5,118.1 C100.8,118.5 100.2,119.2 99.8,120 C99.7,120.2 99.7,120.4 99.6,120.6 C99.5,121.1 99.5,121.6 99.6,122 C99.8,122.4 100,122.6 100.4,122.7 C100.6,122.8 101.1,122.8 101.8,122.5 C103.7,121.8 105.6,121.7 106.9,122 C108.4,122.4 109.8,123.5 111.5,125.3 C111.5,125.3 111.5,125.3 111.5,125.4 C111.5,125.4 111.5,125.4 111.6,125.4 C115.8,130.4 120.6,134.5 126.6,132.9 C128.8,132.3 130.6,130.9 131.7,128.8 C132.9,126.6 133.1,123.9 132.3,121.5 C131.2,118.1 128.5,115.4 125.3,114.5 C124.6,114.3 123.8,114.1 123.1,114.1 C122.8,114.1 122.6,114.1 122.3,114.2 C121.8,114.4 121.5,114.8 121.6,115.3 C121.6,115.4 121.8,115.6 121.9,115.7 L121.9,115.7 L122.8,116.3 C124.1,117.2 125,118.3 125.4,119.5 C125.8,120.8 125.7,122.1 125.1,123.2 C124.6,124.1 123.7,124.7 122.6,125 C118.7,125.8 113,122.3 115.2,117.2 C115.4,116.7 118.4,110.9 121,104.8 C121.5,103.7 121.9,102.6 122.3,101.5 C124.6,95.2 125.5,89.5 125.5,89.5 C125.6,89 125.7,88.4 125.8,87.9 C126.2,85.5 126.4,84.2 126.7,83.4 C126.8,83.1 126.9,83 127,82.8 C128.1,83.9 129.2,85 130.3,86 C134.8,90 137.6,91.1 138.2,88.8 C139,86.1 137.1,80.6 133.8,73.7 Z M32.7,97.6 L32.8,97.5 C35.7,96 38,96 42.2,98 C39.7,102.1 40.3,107.5 43.4,112.6 C39.9,110.4 35.8,104.6 32.7,97.6 Z M71,43.4 C76.7,43.6 80.7,39.3 81.8,32.7 C81.8,34.8 81.8,37 81.8,39.2 C81.8,40.7 81.4,41.4 80.5,41.6 C80.2,41.7 79.8,41.7 79.5,41.8 C78.8,41.9 78.5,42.4 78.5,43 C78.5,43.6 78.6,43.9 79.4,44.8 C80.8,46.4 81.6,48.2 81.7,50.4 C82,53 82.2,53.8 83.4,54.2 C83.1,54.1 82.7,54 82.4,53.9 C81.5,53.6 80.7,53.4 80,53.2 C67.2,48.4 64.5,39.6 64.6,39.3 C64.6,39.4 66.8,43.1 71,43.4 Z M97.4,93 C97.1,96 96.6,98.7 95.7,101.5 C94.1,106.5 88.4,119.1 82.5,116.1 C77.7,113.7 82.4,106.2 86.9,102.1 C87.1,101.9 87.4,101.7 87.6,101.4 C92.2,97.2 97,92.9 96.5,87.5 C96.2,84 94.7,80.8 92.4,78.5 C90.1,76.3 87.1,74.6 83.4,73.7 C82.5,73.5 79.8,72.9 75.9,72.1 C71.6,71.2 68.6,69.9 68.3,66.7 C68,63.7 70.4,61 73.6,60.7 C76.7,60.4 79.6,62.2 81.2,65.3 C82.1,67.1 82.4,67.1 83.1,67 C84,66.9 84.1,66.9 85.6,63.3 C85.9,62.5 86.3,61.8 86.8,61.2 C87.5,62.4 88,62.9 88.7,63.5 C88.9,63.6 89.1,63.8 89.4,64 C89.6,64.1 89.9,64.3 90.1,64.5 C90,64.5 89.9,64.4 89.9,64.4 C90.8,65.2 91.7,66.3 92.5,67.8 C92.5,67.9 92.6,68 92.7,68.1 C93.6,69.7 94.3,70.7 96.1,77.6 C97.6,83.6 97.8,88.3 97.4,93 Z M111.4,68.6 C110.4,68 109.4,67.6 108.8,67.8 C108.5,67.9 108.4,68.2 108.4,68.6 C108.4,68.8 108.5,69.2 108.5,69.5 C108.8,70.8 109.3,71.7 110.6,72.9 C110.6,72.9 110.7,73 110.7,73 C111.1,73.4 111.5,73.7 111.9,74.1 C112.9,75.1 113.6,76.2 114,77.2 C114.5,78.6 114.8,79.1 114.4,84.7 C114.2,87.7 113.8,90.4 113.2,93.1 C113.2,93.1 110.9,92.8 108.5,93.1 C106.1,93.4 104.2,94.1 104.2,94.1 C104.8,89.7 104.4,85.6 103.8,80.2 C103.6,78.4 103.3,76.5 102.9,74.5 C102.7,73.3 102.5,72.4 102.5,71.7 C102.4,70.2 102.9,69.8 104.5,69.7 C105.3,69.6 105.6,69.2 105.6,68.5 C105.6,68.3 105.6,68 105.5,67.6 C104.9,65.5 103.9,64.3 101.5,63 C101.5,63 96.8,60.5 92.9,58.7 C91.9,58.2 90.9,57.9 90.1,57.6 C90.4,57.3 91,56.7 91,56.7 C91.4,56.3 91.6,55.8 91.5,55.3 C91.4,54.6 90.9,54.2 90.1,54.2 C90.1,54.2 89,54.4 89,54.4 C88.4,54.6 87.8,54.7 87.3,54.7 C86.4,54.8 85.5,54.7 84.1,54.4 C84.9,54.5 85.3,54.1 86.4,52.4 C104.5,17 97.3,40.4 117.4,70.6 C118,71.4 118.5,72.2 119.1,72.9 C116.8,71.6 114.1,70.1 111.4,68.6 Z" id="Shape"></path>
            <path d="M51.5,83.8 C54.1,87.1 57.9,88.4 60,86.7 C62.2,85 62,81 59.4,77.6 C56.8,74.3 53,73 50.8,74.7 C48.8,76.4 49,80.5 51.5,83.8 Z" id="Shape"></path>
        </g>
    </g>
</svg>