<?xml version="1.0" standalone="no"?>
<!DOCTYPE svg PUBLIC "-//W3C//DTD SVG 20010904//EN"
 "http://www.w3.org/TR/2001/REC-SVG-20010904/DTD/svg10.dtd">
<svg version="1.0" xmlns="http://www.w3.org/2000/svg"
 width="236.000000pt" height="236.000000pt" viewBox="0 0 236.000000 236.000000"
 preserveAspectRatio="xMidYMid meet">
<metadata>
Created by potrace 1.11, written by Peter Selinger 2001-2013
</metadata>
<g transform="translate(0.000000,236.000000) scale(0.100000,-0.100000)"
fill="#000000" stroke="none">
<path d="M292 2307 c-18 -23 7 -56 81 -106 41 -28 88 -67 105 -87 48 -58 76
-161 76 -279 1 -115 -7 -165 -36 -244 -55 -149 -166 -259 -355 -354 -84 -43
-130 -96 -154 -181 -11 -38 -1 -76 20 -76 9 0 59 34 111 75 285 225 467 302
720 302 63 0 134 -2 157 -4 l41 -5 -29 -42 c-67 -100 -57 -202 27 -276 49 -42
103 -66 195 -85 147 -31 179 -53 179 -127 0 -37 -62 -176 -104 -233 -13 -18
-14 -17 -30 12 -8 17 -43 73 -76 124 -64 100 -77 139 -61 181 8 21 7 29 -6 39
-13 11 -19 9 -40 -16 -77 -95 -113 -120 -210 -151 -7 -2 -13 -13 -13 -24 0
-16 -6 -20 -35 -20 -20 0 -50 -7 -66 -16 -29 -15 -32 -14 -65 11 -40 31 -100
104 -129 158 -20 37 -51 49 -61 24 -3 -8 -1 -31 4 -53 9 -45 2 -96 -14 -101
-19 -6 -57 153 -58 242 -1 95 16 134 68 159 62 29 119 20 140 -23 17 -36 10
-58 -25 -70 -32 -11 -35 -18 -15 -43 44 -59 152 -37 216 44 25 32 39 101 29
146 -8 41 -47 98 -76 111 -19 9 -25 7 -39 -14 -19 -30 -58 -43 -149 -49 -197
-14 -375 -150 -419 -319 -17 -65 -9 -82 40 -82 36 0 37 -1 59 -61 32 -89 90
-197 158 -299 34 -49 64 -92 67 -95 3 -3 16 -20 29 -37 39 -57 27 -119 -28
-147 -60 -31 -95 -26 -118 19 -15 28 -7 61 22 100 31 40 15 53 -36 27 -138
-71 -125 -290 19 -309 83 -11 153 33 221 141 52 82 82 106 136 106 33 0 52 -8
89 -36 133 -102 279 -120 389 -48 l38 25 35 -22 c123 -76 287 54 402 318 20
46 39 72 56 81 27 14 102 19 113 8 3 -3 -13 -58 -37 -122 -43 -115 -66 -151
-138 -207 -15 -11 -22 -26 -20 -40 3 -23 6 -23 78 -13 46 6 81 -14 154 -89 34
-34 77 -70 96 -80 46 -24 129 -24 164 -1 58 37 82 122 55 193 -24 64 -116 125
-163 107 -14 -5 -10 -13 19 -45 41 -45 46 -88 15 -119 -48 -48 -160 6 -160 77
0 12 25 77 56 145 52 113 79 179 90 218 25 94 51 214 53 248 1 7 30 -12 66
-43 91 -77 134 -83 135 -19 1 98 -167 426 -277 542 -35 37 -44 41 -71 36 -27
-6 -33 -2 -66 42 -64 89 -105 229 -101 356 3 143 53 246 160 328 43 33 61 54
63 73 4 34 -1 34 -80 -3 -92 -43 -146 -51 -207 -30 -54 18 -81 12 -81 -19 0
-10 7 -24 16 -32 23 -19 11 -49 -55 -148 -67 -99 -96 -131 -116 -131 -24 0
-29 22 -28 127 1 115 13 150 68 203 71 68 25 83 -60 20 -66 -49 -97 -56 -154
-36 -64 23 -83 1 -37 -43 38 -35 55 -81 61 -157 l5 -69 -26 52 c-38 79 -113
122 -179 105 -62 -16 -77 -111 -24 -154 29 -24 59 -23 59 1 0 44 55 39 83 -8
9 -16 17 -49 17 -76 0 -79 -69 -128 -133 -93 -71 37 -106 142 -83 246 17 75
-45 10 -65 -69 -13 -49 -14 -50 -45 -44 -70 13 -144 -55 -144 -132 0 -23 3
-48 6 -57 10 -27 33 -18 42 17 11 41 48 62 77 43 15 -11 20 -24 19 -60 0 -39
-6 -52 -34 -81 -64 -66 -150 -67 -194 -3 -24 33 -19 78 14 144 40 81 81 124
118 124 17 0 32 6 35 15 7 18 1 22 -61 40 -30 9 -61 29 -87 55 -52 53 -68 53
-60 -2 7 -45 -14 -110 -49 -153 -16 -20 -16 -19 -12 5 3 14 7 51 10 83 3 31 8
67 11 80 3 12 7 34 9 48 9 57 40 139 63 165 29 34 29 40 -2 60 -22 15 -32 15
-67 5 -23 -7 -73 -15 -112 -18 -62 -5 -78 -2 -131 22 -140 63 -143 64 -153 52z
m1087 -683 c-6 -8 -17 -14 -24 -14 -24 0 -24 -27 0 -62 13 -19 27 -55 30 -79
4 -24 9 -47 11 -51 11 -18 -37 -6 -96 24 -70 35 -159 115 -185 167 l-18 35 32
-27 c81 -68 193 -30 238 80 l18 43 3 -51 c2 -29 -2 -57 -9 -65z m325 88 c9
-11 43 -84 75 -163 32 -79 67 -162 77 -184 24 -51 119 -222 142 -254 15 -22 9
-20 -62 17 -86 46 -108 45 -87 -6 7 -16 27 -43 46 -61 37 -35 54 -78 50 -131
-7 -102 -17 -176 -24 -183 -5 -5 -30 -10 -57 -11 -27 -2 -58 -6 -70 -10 -20
-6 -21 -3 -22 72 -1 76 -9 172 -17 202 -2 8 -7 39 -10 67 -6 50 -5 54 19 63
34 12 34 48 1 84 -13 15 -72 50 -130 78 -96 47 -104 52 -90 68 24 26 1 40 -58
33 l-51 -6 20 29 c11 16 35 58 54 94 18 36 49 90 68 120 63 101 91 119 126 82z
m-387 -442 c18 -10 43 -35 55 -55 13 -19 30 -34 38 -32 8 1 26 23 38 48 l24
46 45 -46 c25 -25 56 -69 69 -97 67 -142 87 -378 45 -519 -31 -106 -105 -231
-151 -259 -86 -50 -142 27 -88 121 11 21 60 79 108 128 139 144 155 179 126
280 -30 102 -110 159 -276 195 -118 25 -165 45 -179 76 -15 34 -14 51 6 85 29
49 88 61 140 29z m-321 -558 c45 -24 141 -156 163 -223 20 -63 -10 -132 -71
-162 -102 -50 -245 35 -255 151 -4 55 10 79 53 88 36 7 72 -23 81 -67 12 -60
64 -25 62 43 -1 66 -33 121 -92 161 l-37 25 37 -2 c21 -1 47 -8 59 -14z m-323
-43 c33 -9 38 -14 33 -32 -16 -53 -17 -114 -3 -152 8 -22 17 -49 21 -60 15
-42 -91 87 -128 156 -37 69 -38 73 -21 86 23 16 47 16 98 2z"/>
<path d="M917 2210 c-95 -51 -146 -202 -85 -253 82 -69 241 127 190 232 -8 17
-17 32 -21 32 -32 7 -56 4 -84 -11z"/>
<path d="M857 1042 c-48 -52 10 -174 96 -205 54 -20 103 36 86 96 -28 97 -135
161 -182 109z"/>
</g>
</svg>
